<mxfile host="app.diagrams.net" modified="2023-10-10T21:12:19.823Z" agent="Mozilla/5.0 (Windows NT 10.0; Win64; x64) AppleWebKit/537.36 (KHTML, like Gecko) Chrome/117.0.0.0 Safari/537.36" etag="417uyMrr2BOMCUpK3zB_" version="22.0.4" type="github">
  <diagram name="Page-1" id="2YBvvXClWsGukQMizWep">
    <mxGraphModel dx="1050" dy="534" grid="1" gridSize="10" guides="1" tooltips="1" connect="1" arrows="1" fold="1" page="1" pageScale="1" pageWidth="850" pageHeight="1100" math="0" shadow="0">
      <root>
        <mxCell id="0" />
        <mxCell id="1" parent="0" />
        <mxCell id="aM9ryv3xv72pqoxQDRHE-1" value="&amp;lt;&amp;lt;actor&amp;gt;&amp;gt;&lt;br&gt;Doctor" style="shape=umlLifeline;perimeter=lifelinePerimeter;whiteSpace=wrap;html=1;container=0;dropTarget=0;collapsible=0;recursiveResize=0;outlineConnect=0;portConstraint=eastwest;newEdgeStyle={&quot;edgeStyle&quot;:&quot;elbowEdgeStyle&quot;,&quot;elbow&quot;:&quot;vertical&quot;,&quot;curved&quot;:0,&quot;rounded&quot;:0};" parent="1" vertex="1">
          <mxGeometry x="60" y="40" width="100" height="360" as="geometry" />
        </mxCell>
        <mxCell id="aM9ryv3xv72pqoxQDRHE-2" value="" style="html=1;points=[];perimeter=orthogonalPerimeter;outlineConnect=0;targetShapes=umlLifeline;portConstraint=eastwest;newEdgeStyle={&quot;edgeStyle&quot;:&quot;elbowEdgeStyle&quot;,&quot;elbow&quot;:&quot;vertical&quot;,&quot;curved&quot;:0,&quot;rounded&quot;:0};" parent="aM9ryv3xv72pqoxQDRHE-1" vertex="1">
          <mxGeometry x="45" y="70" width="10" height="70" as="geometry" />
        </mxCell>
        <mxCell id="hHVcyPx7yW1FXhk6AP4Q-1" value="" style="html=1;points=[];perimeter=orthogonalPerimeter;outlineConnect=0;targetShapes=umlLifeline;portConstraint=eastwest;newEdgeStyle={&quot;edgeStyle&quot;:&quot;elbowEdgeStyle&quot;,&quot;elbow&quot;:&quot;vertical&quot;,&quot;curved&quot;:0,&quot;rounded&quot;:0};" vertex="1" parent="aM9ryv3xv72pqoxQDRHE-1">
          <mxGeometry x="45" y="320" width="10" height="25" as="geometry" />
        </mxCell>
        <mxCell id="aM9ryv3xv72pqoxQDRHE-5" value="Doctor Information Database" style="shape=umlLifeline;perimeter=lifelinePerimeter;whiteSpace=wrap;html=1;container=0;dropTarget=0;collapsible=0;recursiveResize=0;outlineConnect=0;portConstraint=eastwest;newEdgeStyle={&quot;edgeStyle&quot;:&quot;elbowEdgeStyle&quot;,&quot;elbow&quot;:&quot;vertical&quot;,&quot;curved&quot;:0,&quot;rounded&quot;:0};" parent="1" vertex="1">
          <mxGeometry x="190" y="40" width="100" height="360" as="geometry" />
        </mxCell>
        <mxCell id="aM9ryv3xv72pqoxQDRHE-6" value="" style="html=1;points=[];perimeter=orthogonalPerimeter;outlineConnect=0;targetShapes=umlLifeline;portConstraint=eastwest;newEdgeStyle={&quot;edgeStyle&quot;:&quot;elbowEdgeStyle&quot;,&quot;elbow&quot;:&quot;vertical&quot;,&quot;curved&quot;:0,&quot;rounded&quot;:0};" parent="aM9ryv3xv72pqoxQDRHE-5" vertex="1">
          <mxGeometry x="45" y="80" width="10" height="30" as="geometry" />
        </mxCell>
        <mxCell id="aM9ryv3xv72pqoxQDRHE-7" value="Search" style="html=1;verticalAlign=bottom;endArrow=block;edgeStyle=elbowEdgeStyle;elbow=vertical;curved=0;rounded=0;" parent="1" source="aM9ryv3xv72pqoxQDRHE-2" target="aM9ryv3xv72pqoxQDRHE-6" edge="1">
          <mxGeometry relative="1" as="geometry">
            <mxPoint x="195" y="130" as="sourcePoint" />
            <Array as="points">
              <mxPoint x="180" y="120" />
            </Array>
          </mxGeometry>
        </mxCell>
        <mxCell id="aM9ryv3xv72pqoxQDRHE-8" value="Return results" style="html=1;verticalAlign=bottom;endArrow=open;dashed=1;endSize=8;edgeStyle=elbowEdgeStyle;elbow=vertical;curved=0;rounded=0;" parent="1" source="aM9ryv3xv72pqoxQDRHE-6" target="aM9ryv3xv72pqoxQDRHE-2" edge="1">
          <mxGeometry relative="1" as="geometry">
            <mxPoint x="195" y="205" as="targetPoint" />
            <Array as="points">
              <mxPoint x="140" y="140" />
              <mxPoint x="190" y="280" />
            </Array>
          </mxGeometry>
        </mxCell>
        <mxCell id="mDUgTmCi87v3PveI1Hub-2" value="&amp;lt;&amp;lt;actor&amp;gt;&amp;gt;&lt;br&gt;Form Manager" style="shape=umlLifeline;perimeter=lifelinePerimeter;whiteSpace=wrap;html=1;container=0;dropTarget=0;collapsible=0;recursiveResize=0;outlineConnect=0;portConstraint=eastwest;newEdgeStyle={&quot;edgeStyle&quot;:&quot;elbowEdgeStyle&quot;,&quot;elbow&quot;:&quot;vertical&quot;,&quot;curved&quot;:0,&quot;rounded&quot;:0};" parent="1" vertex="1">
          <mxGeometry x="320" y="40" width="100" height="360" as="geometry" />
        </mxCell>
        <mxCell id="mDUgTmCi87v3PveI1Hub-3" value="" style="html=1;points=[];perimeter=orthogonalPerimeter;outlineConnect=0;targetShapes=umlLifeline;portConstraint=eastwest;newEdgeStyle={&quot;edgeStyle&quot;:&quot;elbowEdgeStyle&quot;,&quot;elbow&quot;:&quot;vertical&quot;,&quot;curved&quot;:0,&quot;rounded&quot;:0};" parent="mDUgTmCi87v3PveI1Hub-2" vertex="1">
          <mxGeometry x="45" y="130" width="10" height="30" as="geometry" />
        </mxCell>
        <mxCell id="mDUgTmCi87v3PveI1Hub-4" style="edgeStyle=orthogonalEdgeStyle;rounded=0;orthogonalLoop=1;jettySize=auto;html=1;" parent="1" source="aM9ryv3xv72pqoxQDRHE-2" target="mDUgTmCi87v3PveI1Hub-3" edge="1">
          <mxGeometry relative="1" as="geometry">
            <Array as="points">
              <mxPoint x="180" y="170" />
              <mxPoint x="180" y="170" />
            </Array>
          </mxGeometry>
        </mxCell>
        <mxCell id="mDUgTmCi87v3PveI1Hub-5" value="Fill out form" style="edgeLabel;html=1;align=center;verticalAlign=middle;resizable=0;points=[];" parent="mDUgTmCi87v3PveI1Hub-4" vertex="1" connectable="0">
          <mxGeometry x="0.2" y="1" relative="1" as="geometry">
            <mxPoint x="22" y="-9" as="offset" />
          </mxGeometry>
        </mxCell>
        <mxCell id="mDUgTmCi87v3PveI1Hub-7" value="&amp;lt;&amp;lt;actor&amp;gt;&amp;gt;&lt;br&gt;Patient Profile" style="shape=umlLifeline;perimeter=lifelinePerimeter;whiteSpace=wrap;html=1;container=0;dropTarget=0;collapsible=0;recursiveResize=0;outlineConnect=0;portConstraint=eastwest;newEdgeStyle={&quot;edgeStyle&quot;:&quot;elbowEdgeStyle&quot;,&quot;elbow&quot;:&quot;vertical&quot;,&quot;curved&quot;:0,&quot;rounded&quot;:0};" parent="1" vertex="1">
          <mxGeometry x="450" y="40" width="100" height="360" as="geometry" />
        </mxCell>
        <mxCell id="mDUgTmCi87v3PveI1Hub-8" value="" style="html=1;points=[];perimeter=orthogonalPerimeter;outlineConnect=0;targetShapes=umlLifeline;portConstraint=eastwest;newEdgeStyle={&quot;edgeStyle&quot;:&quot;elbowEdgeStyle&quot;,&quot;elbow&quot;:&quot;vertical&quot;,&quot;curved&quot;:0,&quot;rounded&quot;:0};" parent="mDUgTmCi87v3PveI1Hub-7" vertex="1">
          <mxGeometry x="45" y="140" width="10" height="180" as="geometry" />
        </mxCell>
        <mxCell id="mDUgTmCi87v3PveI1Hub-13" value="alt" style="rounded=0;whiteSpace=wrap;html=1;" parent="1" vertex="1">
          <mxGeometry x="50" y="225" width="50" height="30" as="geometry" />
        </mxCell>
        <mxCell id="mDUgTmCi87v3PveI1Hub-17" value="" style="edgeStyle=orthogonalEdgeStyle;rounded=0;orthogonalLoop=1;jettySize=auto;html=1;" parent="1" source="mDUgTmCi87v3PveI1Hub-3" target="mDUgTmCi87v3PveI1Hub-7" edge="1">
          <mxGeometry relative="1" as="geometry">
            <Array as="points">
              <mxPoint x="390" y="180" />
              <mxPoint x="390" y="180" />
            </Array>
          </mxGeometry>
        </mxCell>
        <mxCell id="mDUgTmCi87v3PveI1Hub-26" value="Send form" style="edgeLabel;html=1;align=center;verticalAlign=middle;resizable=0;points=[];" parent="mDUgTmCi87v3PveI1Hub-17" vertex="1" connectable="0">
          <mxGeometry x="0.1727" y="1" relative="1" as="geometry">
            <mxPoint x="-8" y="-8" as="offset" />
          </mxGeometry>
        </mxCell>
        <mxCell id="mDUgTmCi87v3PveI1Hub-18" value="&amp;lt;&amp;lt;actor&amp;gt;&amp;gt;&lt;br&gt;Notifications" style="shape=umlLifeline;perimeter=lifelinePerimeter;whiteSpace=wrap;html=1;container=0;dropTarget=0;collapsible=0;recursiveResize=0;outlineConnect=0;portConstraint=eastwest;newEdgeStyle={&quot;edgeStyle&quot;:&quot;elbowEdgeStyle&quot;,&quot;elbow&quot;:&quot;vertical&quot;,&quot;curved&quot;:0,&quot;rounded&quot;:0};" parent="1" vertex="1">
          <mxGeometry x="570" y="40" width="100" height="360" as="geometry" />
        </mxCell>
        <mxCell id="mDUgTmCi87v3PveI1Hub-19" value="" style="html=1;points=[];perimeter=orthogonalPerimeter;outlineConnect=0;targetShapes=umlLifeline;portConstraint=eastwest;newEdgeStyle={&quot;edgeStyle&quot;:&quot;elbowEdgeStyle&quot;,&quot;elbow&quot;:&quot;vertical&quot;,&quot;curved&quot;:0,&quot;rounded&quot;:0};" parent="mDUgTmCi87v3PveI1Hub-18" vertex="1">
          <mxGeometry x="45" y="150" width="10" height="20" as="geometry" />
        </mxCell>
        <mxCell id="mDUgTmCi87v3PveI1Hub-20" style="edgeStyle=orthogonalEdgeStyle;rounded=0;orthogonalLoop=1;jettySize=auto;html=1;" parent="1" source="mDUgTmCi87v3PveI1Hub-3" target="mDUgTmCi87v3PveI1Hub-18" edge="1">
          <mxGeometry relative="1" as="geometry">
            <Array as="points">
              <mxPoint x="530" y="190" />
              <mxPoint x="530" y="190" />
            </Array>
          </mxGeometry>
        </mxCell>
        <mxCell id="mDUgTmCi87v3PveI1Hub-27" value="Send form" style="edgeLabel;html=1;align=center;verticalAlign=middle;resizable=0;points=[];" parent="mDUgTmCi87v3PveI1Hub-20" vertex="1" connectable="0">
          <mxGeometry x="-0.3211" y="-1" relative="1" as="geometry">
            <mxPoint x="82" y="-10" as="offset" />
          </mxGeometry>
        </mxCell>
        <mxCell id="mDUgTmCi87v3PveI1Hub-21" value="&amp;lt;&amp;lt;actor&amp;gt;&amp;gt;&lt;br&gt;Referred Doctor" style="shape=umlLifeline;perimeter=lifelinePerimeter;whiteSpace=wrap;html=1;container=0;dropTarget=0;collapsible=0;recursiveResize=0;outlineConnect=0;portConstraint=eastwest;newEdgeStyle={&quot;edgeStyle&quot;:&quot;elbowEdgeStyle&quot;,&quot;elbow&quot;:&quot;vertical&quot;,&quot;curved&quot;:0,&quot;rounded&quot;:0};" parent="1" vertex="1">
          <mxGeometry x="700" y="40" width="100" height="360" as="geometry" />
        </mxCell>
        <mxCell id="mDUgTmCi87v3PveI1Hub-22" value="" style="html=1;points=[];perimeter=orthogonalPerimeter;outlineConnect=0;targetShapes=umlLifeline;portConstraint=eastwest;newEdgeStyle={&quot;edgeStyle&quot;:&quot;elbowEdgeStyle&quot;,&quot;elbow&quot;:&quot;vertical&quot;,&quot;curved&quot;:0,&quot;rounded&quot;:0};" parent="mDUgTmCi87v3PveI1Hub-21" vertex="1">
          <mxGeometry x="45" y="160" width="10" height="180" as="geometry" />
        </mxCell>
        <mxCell id="mDUgTmCi87v3PveI1Hub-24" style="edgeStyle=orthogonalEdgeStyle;rounded=0;orthogonalLoop=1;jettySize=auto;html=1;" parent="1" source="mDUgTmCi87v3PveI1Hub-19" target="mDUgTmCi87v3PveI1Hub-21" edge="1">
          <mxGeometry relative="1" as="geometry">
            <Array as="points">
              <mxPoint x="660" y="210" />
              <mxPoint x="660" y="210" />
            </Array>
          </mxGeometry>
        </mxCell>
        <mxCell id="mDUgTmCi87v3PveI1Hub-30" value="Display" style="edgeLabel;html=1;align=center;verticalAlign=middle;resizable=0;points=[];" parent="mDUgTmCi87v3PveI1Hub-24" vertex="1" connectable="0">
          <mxGeometry x="0.3173" relative="1" as="geometry">
            <mxPoint x="-27" y="-9" as="offset" />
          </mxGeometry>
        </mxCell>
        <mxCell id="mDUgTmCi87v3PveI1Hub-32" value="" style="endArrow=none;html=1;rounded=0;exitX=0;exitY=0.5;exitDx=0;exitDy=0;entryX=1;entryY=0.5;entryDx=0;entryDy=0;" parent="1" source="mDUgTmCi87v3PveI1Hub-9" target="mDUgTmCi87v3PveI1Hub-9" edge="1">
          <mxGeometry width="50" height="50" relative="1" as="geometry">
            <mxPoint x="400" y="390" as="sourcePoint" />
            <mxPoint x="450" y="340" as="targetPoint" />
          </mxGeometry>
        </mxCell>
        <mxCell id="mDUgTmCi87v3PveI1Hub-33" value="[accept new patient]" style="rounded=0;whiteSpace=wrap;html=1;strokeWidth=1;fillOpacity=100;strokeOpacity=0;" parent="1" vertex="1">
          <mxGeometry x="320" y="226" width="120" height="30" as="geometry" />
        </mxCell>
        <mxCell id="mDUgTmCi87v3PveI1Hub-34" value="[decline new patient]" style="rounded=0;whiteSpace=wrap;html=1;strokeWidth=1;fillOpacity=100;strokeOpacity=0;" parent="1" vertex="1">
          <mxGeometry x="320" y="314" width="120" height="30" as="geometry" />
        </mxCell>
        <mxCell id="mDUgTmCi87v3PveI1Hub-38" style="edgeStyle=orthogonalEdgeStyle;rounded=0;orthogonalLoop=1;jettySize=auto;html=1;" parent="1" source="mDUgTmCi87v3PveI1Hub-8" target="mDUgTmCi87v3PveI1Hub-19" edge="1">
          <mxGeometry relative="1" as="geometry">
            <Array as="points">
              <mxPoint x="560" y="200" />
              <mxPoint x="560" y="200" />
            </Array>
          </mxGeometry>
        </mxCell>
        <mxCell id="mDUgTmCi87v3PveI1Hub-39" value="Send history" style="edgeLabel;html=1;align=center;verticalAlign=middle;resizable=0;points=[];" parent="mDUgTmCi87v3PveI1Hub-38" vertex="1" connectable="0">
          <mxGeometry x="0.1818" y="-1" relative="1" as="geometry">
            <mxPoint x="-9" y="6" as="offset" />
          </mxGeometry>
        </mxCell>
        <mxCell id="mDUgTmCi87v3PveI1Hub-40" style="edgeStyle=orthogonalEdgeStyle;rounded=0;orthogonalLoop=1;jettySize=auto;html=1;endArrow=open;endFill=0;" parent="1" source="mDUgTmCi87v3PveI1Hub-22" target="mDUgTmCi87v3PveI1Hub-8" edge="1">
          <mxGeometry relative="1" as="geometry">
            <Array as="points">
              <mxPoint x="650" y="278" />
              <mxPoint x="650" y="278" />
            </Array>
          </mxGeometry>
        </mxCell>
        <mxCell id="mDUgTmCi87v3PveI1Hub-41" value="Send accept message" style="edgeLabel;html=1;align=center;verticalAlign=middle;resizable=0;points=[];" parent="mDUgTmCi87v3PveI1Hub-40" vertex="1" connectable="0">
          <mxGeometry x="0.2667" y="2" relative="1" as="geometry">
            <mxPoint y="-11" as="offset" />
          </mxGeometry>
        </mxCell>
        <mxCell id="mDUgTmCi87v3PveI1Hub-42" style="edgeStyle=orthogonalEdgeStyle;rounded=0;orthogonalLoop=1;jettySize=auto;html=1;endArrow=open;endFill=0;" parent="1" source="mDUgTmCi87v3PveI1Hub-22" target="mDUgTmCi87v3PveI1Hub-8" edge="1">
          <mxGeometry relative="1" as="geometry">
            <Array as="points">
              <mxPoint x="540" y="350" />
              <mxPoint x="540" y="350" />
            </Array>
          </mxGeometry>
        </mxCell>
        <mxCell id="mDUgTmCi87v3PveI1Hub-43" value="Send decline message" style="edgeLabel;html=1;align=center;verticalAlign=middle;resizable=0;points=[];" parent="mDUgTmCi87v3PveI1Hub-42" vertex="1" connectable="0">
          <mxGeometry x="0.2417" y="3" relative="1" as="geometry">
            <mxPoint y="-12" as="offset" />
          </mxGeometry>
        </mxCell>
        <mxCell id="hHVcyPx7yW1FXhk6AP4Q-2" style="edgeStyle=elbowEdgeStyle;rounded=0;orthogonalLoop=1;jettySize=auto;html=1;elbow=vertical;curved=0;endArrow=open;endFill=0;" edge="1" parent="1">
          <mxGeometry relative="1" as="geometry">
            <mxPoint x="742" y="370" as="sourcePoint" />
            <mxPoint x="117" y="370" as="targetPoint" />
            <Array as="points">
              <mxPoint x="474" y="370" />
            </Array>
          </mxGeometry>
        </mxCell>
        <mxCell id="hHVcyPx7yW1FXhk6AP4Q-3" value="Send decline message" style="edgeLabel;html=1;align=center;verticalAlign=middle;resizable=0;points=[];" vertex="1" connectable="0" parent="hHVcyPx7yW1FXhk6AP4Q-2">
          <mxGeometry x="0.818" y="2" relative="1" as="geometry">
            <mxPoint x="189" y="-11" as="offset" />
          </mxGeometry>
        </mxCell>
        <mxCell id="mDUgTmCi87v3PveI1Hub-9" value="" style="rounded=0;whiteSpace=wrap;html=1;strokeWidth=1;perimeterSpacing=0;strokeOpacity=100;fillOpacity=0;" parent="1" vertex="1">
          <mxGeometry x="50" y="225" width="730" height="175" as="geometry" />
        </mxCell>
      </root>
    </mxGraphModel>
  </diagram>
</mxfile>
